<svg width="194" height="92" viewBox="0 0 194 92" fill="none" xmlns="http://www.w3.org/2000/svg">
<g filter="url(#filter0_d_334_105784)">
<path d="M10.9199 32.2313L18.084 44.3619L20.9498 41.6132L13.1286 29.9606L10.9199 32.2313Z" fill="url(#paint0_linear_334_105784)"/>
<path d="M117.543 22.6696L117.245 24.2833L120.648 23.1476L120.23 21.1758L117.544 22.6696H117.543Z" fill="#0071B9"/>
<path d="M97.4841 11.7347L86.4399 24.4032L89.6635 23.5071L100.171 10.36L97.4847 11.7347H97.4841Z" fill="url(#paint1_linear_334_105784)"/>
<path d="M156.646 29.0638L159.333 27.6299L158.557 34.4421L156.646 29.0638Z" fill="#1D2C5E"/>
<path d="M139.752 33.4262L142.199 33.9641L145.244 32.4702L142.558 31.4543L139.752 33.4262Z" fill="#1D2C5E"/>
<path d="M56.6501 26.2552L57.0086 34.0833L60.4118 32.7685L59.3969 24.7614L56.6508 26.2552H56.6501Z" fill="url(#paint2_linear_334_105784)"/>
<path d="M142.378 23.8654L139.692 25.3592L139.752 33.4263L142.498 32.0516L143.334 28.1079L142.379 23.8654H142.378Z" fill="url(#paint3_linear_334_105784)"/>
<path d="M142.02 33.9641L139.035 60.4961L143.811 59.5401L144.706 32.5302L142.02 33.9641Z" fill="#312370"/>
<path d="M147.811 61.751L147.931 65.3365L157.065 68.2643L159.811 66.8303L150.797 59.839L141.722 59.0621L139.036 60.4961L147.812 61.751H147.811Z" fill="#21386E"/>
<path d="M113.902 55.4167L116.111 54.2217L117.603 56.8512L119.693 55.7156L120.11 59.1813L133.423 61.5718L136.05 60.078L117.722 48.9033L104.707 51.1142L102.2 53.564L113.901 55.4167H113.902Z" fill="#21386E"/>
<path d="M109.663 22.7894L106.977 24.2833L102.201 53.5646L104.887 52.1307L109.484 35.6976L109.663 22.7901V22.7894Z" fill="url(#paint4_linear_334_105784)"/>
<path d="M88.4097 26.7331L86.2603 27.8688L86.4392 28.5858L91.5136 25.3591L89.3049 22.9685L86.4392 24.4025L88.4091 26.7331H88.4097Z" fill="#1D2C5E"/>
<path d="M94.2006 61.333L72.53 50.5764L75.2162 48.4847L96.8869 59.8385L94.2006 61.3323V61.333Z" fill="#21386E"/>
<path d="M74.5596 21.2957L71.2761 27.5101L74.7385 26.4942L77.2458 19.8011L74.5596 21.295V21.2957Z" fill="#1D2C5E"/>
<path d="M44.7102 47.0507L41.9641 48.9626C41.9641 48.9626 42.5613 52.0702 43.3375 54.2211C44.1136 56.3727 45.9046 58.1055 45.9046 58.1055C47.0984 59.2412 48.4718 60.0774 50.0839 60.5553C53.1286 61.4514 56.591 60.8542 59.5764 58.9417C60.3526 58.4637 61.4273 57.6868 62.0837 57.0297C59.1588 58.8225 44.7115 47.05 44.7115 47.05L44.7102 47.0507Z" fill="url(#paint5_linear_334_105784)"/>
<path d="M59.575 33.4862L62.0823 61.3928L72.47 59.899L75.2161 58.465L62.3809 31.8132L59.7539 32.7093L57.0078 34.084L59.575 33.4862Z" fill="#1D2C5E"/>
<path d="M20.7704 43.167L32.3519 69.4007L43.3368 65.875L46.023 64.0823L23.2178 40.1786L20.352 41.9114L18.0835 44.3613L20.7697 43.1663L20.7704 43.167Z" fill="url(#paint6_linear_334_105784)"/>
<path d="M135.334 55.5365L135.513 56.8513C136.468 56.7314 137.423 56.6123 138.318 56.3134C139.333 55.9546 141.483 54.9986 142.258 54.2816C141.9 54.4014 136.885 55.7156 135.333 55.5365" fill="#1D2C5E"/>
<path d="M96.469 48.8435L96.8867 50.9352C99.0954 50.5764 101.006 49.7995 102.916 48.6644C104.11 47.9475 105.364 46.9316 105.782 46.6327C105.483 46.8118 96.469 48.8435 96.469 48.8435Z" fill="#1D2C5E"/>
<path d="M101.902 38.4458L101.782 38.5656C101.842 38.5656 101.902 38.5057 101.902 38.4458Z" fill="#7D7F68"/>
<path d="M105.484 35.219L107.514 33.0082L106.798 33.7252V33.6652L106.2 34.3223L104.171 36.4739L106.081 38.2067L106.439 36.0552L107.394 36.892L105.484 35.219Z" fill="#7D7F68"/>
<path d="M105.484 35.219L107.394 36.892L108.11 32.3505L107.513 33.0075L105.483 35.2184L105.484 35.219Z" fill="#7D7F68"/>
<path d="M97.186 32.5302C95.9323 32.0522 94.2011 32.1714 93.2461 33.2472C93.0073 33.4862 92.5897 34.084 92.47 34.3829C93.3652 33.6659 95.0371 33.4868 96.052 33.9049L97.1866 32.5302H97.186Z" fill="#7D7F68"/>
<path d="M40.7097 36.9519C40.59 36.235 39.8737 35.6372 39.5159 35.4581C38.9186 35.1592 37.7847 35.0993 37.0085 35.279C37.1282 35.757 37.3072 36.3548 37.367 36.5938C37.6656 36.6537 38.203 36.7136 38.5016 36.8328C38.8601 37.0118 39.4566 37.3706 39.5764 38.1475C39.7553 39.1035 39.6961 40.0595 39.2777 40.7771C40.4123 39.7013 40.9491 38.5063 40.7103 36.9526" fill="#7D7F68"/>
<path d="M108.11 31.5143L104.409 35.0998L107.931 38.2673L108.11 31.5149V31.5143Z" fill="#1E2D5F"/>
<path d="M35.3664 66.8985L34.5304 64.9866L23.5461 40.4858L23.3073 40.0078L22.8298 40.2468L22.4713 40.4259L20.5014 41.3818C20.2028 40.9038 19.7253 40.067 19.4267 39.5292L15.0086 32.0592L13.874 30.0874L15.7841 28.8924C17.5751 27.7567 19.6049 26.6816 21.8735 25.725C26.2915 23.8723 30.7688 22.8564 34.8882 22.8564C36.2616 22.8564 37.5744 22.9762 38.7689 23.1553C40.7987 23.3943 42.7087 24.0514 44.261 25.1272C46.5894 26.4419 48.4403 28.4737 49.4552 30.8636C50.2912 32.8354 50.4701 35.1661 49.9327 37.5567L49.6341 38.9906L50.8279 38.1538C51.604 37.556 52.44 37.078 53.3352 36.7199C54.8875 36.0628 56.4996 35.704 58.1111 35.704C59.7225 35.704 61.0959 36.0029 62.4094 36.6001L63.2454 36.9589L63.1855 36.0029L62.8271 31.9993L62.7672 31.3422L62.17 31.5213L60.3191 31.9993L60.0205 25.1871L73.6318 20.8247L73.5121 26.143L74.527 26.382L77.5118 20.7048L86.4071 28.5929L86.7656 28.9517L87.1241 28.5929C88.3179 27.4572 89.8103 26.5012 91.4224 25.8441L92.0788 25.5452L91.6013 24.9474L89.9892 22.9756L100.2 11.2051L105.573 19.2123L97.394 23.6346L95.603 24.5906L97.6926 24.6505C101.573 24.7104 105.036 26.3833 107.364 29.2519L108.2 30.3276L108.737 30.9847L107.842 31.9407L107.245 32.5977L105.215 34.8086L104.857 35.2267L105.274 35.5855L107.184 37.3183L107.901 37.9754L108.08 37.0194L108.796 32.4779L108.975 31.283L109.154 30.088L110.229 23.3357H120.377L120.437 22.8577L120.616 21.722H129.452L131.601 35.2273L131.721 36.1234L132.437 35.5855C133.332 34.9284 134.288 34.4498 135.303 34.0317C136.676 33.4938 138.049 33.2548 139.482 33.2548C141.154 33.2548 142.766 33.6136 144.139 34.3905C144.199 34.3905 144.199 34.4504 144.318 34.5103L144.974 34.7493L145.034 34.0323L145.213 32.5385L145.273 32.0605L144.795 31.9407L143.004 31.5226L142.945 24.4714L156.616 27.4591L157.631 32.5385H158.705L159.78 28.1761L171.183 30.9248L159.481 66.1217L151.183 63.4921L151.124 60.2654V59.7874L150.646 59.7275L142.348 58.5325L142.826 54.29L142.945 53.2741L142.05 53.7521C141.632 53.9911 141.214 54.1701 140.796 54.29C139.423 54.8279 138.05 55.0668 136.677 55.0668C136.259 55.0668 135.901 55.0668 135.483 55.0069L134.767 54.947L134.887 55.664L135.484 59.3687L123.365 57.2171L122.708 51.7197L122.53 49.9269L121.694 51.4807L120.32 54.1695L117.753 49.4489L116.977 48.015L116.738 49.6287L116.201 53.2741L105.574 51.6011L106.41 46.5817L106.589 45.446L105.574 46.0438C103.843 47.0596 101.813 47.8964 99.4849 48.4343C98.6489 48.6134 97.8136 48.7931 96.9178 48.8524L96.4402 48.9123V58.9513L75.5451 48.6134L74.769 48.2546V57.9953L65.3962 59.37L64.9785 55.1274L64.8588 53.9917L64.0228 54.7686C62.7692 55.9635 61.3958 56.9202 59.9034 57.5772C58.3511 58.2343 56.739 58.5931 55.1874 58.5931C53.6358 58.5931 52.0828 58.2343 50.7101 57.6371C48.2028 56.4422 46.3519 54.2307 45.5758 51.4227C45.2173 50.1079 45.0983 48.7339 45.2772 47.2993L45.4561 45.8054L44.3814 46.8812C43.6052 47.5982 42.7692 48.3152 41.874 48.9729L41.5754 49.2119L41.6951 49.5707L44.8595 61.6414L45.3969 63.7929L43.3073 64.45L37.3968 66.3619L35.367 66.8998L35.3664 66.8985ZM37.9934 34.4504C37.6948 34.4504 37.3962 34.4504 37.0383 34.5103L36.6207 34.5702L36.0234 34.6901L36.2024 35.2879L36.3221 35.6467L37.9934 41.204L38.1723 41.7419L38.4111 42.5188L39.0083 41.9809L39.4259 41.6221C41.0973 40.1282 41.6346 38.6344 41.2768 36.7218C41.0381 35.5861 40.2021 35.0489 39.6647 34.8099C39.3062 34.5709 38.6498 34.4511 37.9934 34.4511V34.4504ZM83.4841 34.6295L82.4093 35.6454L79.6034 38.3342L79.0062 38.932L79.7823 39.2309L82.7672 40.3666L83.6624 40.7254L83.4834 39.7694C83.2447 38.5146 83.1848 37.2597 83.3045 36.0647L83.4834 34.6308L83.4841 34.6295ZM95.6628 31.522C94.5282 31.522 93.3943 31.9999 92.6181 32.8966C91.4243 34.2114 91.1856 36.1833 92.0209 37.737L92.2597 38.1551L92.6181 38.8122L93.1555 38.2144L93.514 37.8556L97.6334 33.1943L97.932 32.8354L98.4694 32.2376L97.7531 31.9387L97.2756 31.7597C96.6784 31.6398 96.2008 31.5207 95.6635 31.5207L95.6628 31.522Z" fill="#FFCB05"/>
<path d="M91.3357 40.6573C91.5146 40.8363 91.3357 40.7172 91.5146 40.8363L92.7683 39.9403C92.5894 39.8205 92.4098 39.6414 92.2309 39.5222C90.4399 37.8493 90.9174 34.1439 92.052 32.1122C88.9475 34.6219 89.127 38.4464 91.3357 40.6573Z" fill="#C7A008"/>
<path d="M106.439 42.7483C104.35 44.4811 102.021 45.5569 98.9175 46.3338C98.2611 46.5129 97.5441 46.6327 96.9476 46.6327C91.9928 47.1107 87.8734 44.8399 86.3211 41.1945C86.1422 40.7764 85.9626 40.2984 85.8436 39.8198C85.1273 36.7123 85.7239 33.9635 87.2761 31.7527C87.455 31.5137 87.5748 31.3346 87.7537 31.1549C87.6938 31.2148 87.5748 31.2747 87.5149 31.334C86.9177 31.8719 86.3803 32.4098 85.9626 33.0668C84.4104 35.2184 83.8131 38.0264 84.5301 41.1339C84.6498 41.6119 84.7688 42.0899 85.0076 42.5086C86.5599 46.2133 90.7385 48.4841 95.6341 48.0061C96.2905 47.9462 96.9476 47.827 97.6638 47.6473C100.768 46.8704 103.156 45.7946 105.186 44.0618C105.663 43.6437 106.201 43.1657 106.678 42.6871L106.618 42.6272C106.499 42.6871 106.439 42.6871 106.439 42.747" fill="#C7A008"/>
<path d="M71.6346 33.3664L77.1267 25.5982L76.8879 25.4191L71.5747 32.889L71.6346 33.367V33.3664Z" fill="#C7A008"/>
<path d="M108.111 32.3506L107.394 36.8921L106.439 36.0553L106.081 38.2069L104.171 36.474L106.201 34.3224L106.798 33.6654V33.7253L107.514 33.0083L108.111 32.3512L108.111 32.3506Z" fill="#C7A008"/>
<path d="M101.305 19.5629L103.215 18.7261L99.6929 14.1846L98.5583 15.8575L101.304 19.5622L101.305 19.5629Z" fill="#C7A008"/>
<path d="M47.8141 30.7967C38.8589 19.921 22.8002 25.7773 17.0686 30.8566L17.3074 31.2747C18.6209 30.4978 20.0534 29.8408 21.4866 29.1831C27.2176 26.7332 32.7103 26.0156 37.0685 26.7925C38.6208 26.9716 40.2329 27.4496 41.6655 28.4062C43.6354 29.5419 45.1278 31.095 46.0237 33.1267C47.5759 36.7123 46.2026 41.4927 42.5613 45.4364C47.1583 41.1938 50.322 37.1303 47.8147 30.7961L47.8141 30.7967Z" fill="#C7A008"/>
<path d="M66.0233 43.4652C65.9634 43.2861 65.9634 43.0471 65.9036 42.8674C65.426 41.0746 64.3513 39.6407 62.9187 38.684C60.6502 37.1303 57.4266 36.8314 54.2622 38.1462C52.5909 38.8631 51.1577 39.9988 49.9639 41.3136C50.8591 40.5367 51.874 39.9389 52.9487 39.4609C56.1131 38.0862 59.3367 38.4451 61.6052 39.9988C63.0378 40.9548 64.1125 42.3894 64.5901 44.1821C64.6499 44.3612 64.7098 44.6002 64.7098 44.78C64.8295 45.4969 64.8887 46.1546 64.8887 46.8716C64.8288 48.9633 64.0527 51.0549 62.799 52.8471C62.6201 53.146 62.3814 53.3849 62.1426 53.6838C62.8589 53.0268 63.516 52.3691 64.0527 51.5922C65.3662 49.7994 66.0825 47.7078 66.2022 45.6167C66.2022 44.8998 66.1423 44.1828 66.0233 43.4652Z" fill="#C7A008"/>
<path d="M57.2469 40.8364C57.2469 40.8364 58.5604 39.5216 58.5006 39.5216C56.8884 39.4617 56.1722 41.0154 56.1123 41.1353C56.4708 40.9562 56.8286 40.8963 57.2469 40.8364Z" fill="#C7A008"/>
<path d="M60.2917 42.689C60.3515 42.928 60.4114 43.1071 60.4114 43.3461C60.4114 43.7049 60.3515 44.0032 60.1726 44.3021C60.4114 44.1822 62.3221 43.2263 61.6052 41.3143C61.665 41.4341 60.2318 42.689 60.2917 42.689Z" fill="#C7A008"/>
<path d="M52.8887 43.824C52.8887 43.0472 54.2621 41.0753 54.6797 40.4176C52.5302 41.7923 51.5752 43.6443 51.5752 45.0789C51.5752 47.5886 53.7839 49.6204 56.4109 49.6204C57.6646 49.6204 59.9331 48.9633 61.4255 46.5728C60.6494 47.1107 58.6795 48.3056 57.6047 48.3056C54.9777 48.3056 52.8887 46.3338 52.8887 43.824Z" fill="#C7A008"/>
<path d="M71.3364 46.0948L71.3963 56.1937L73.0084 56.3135L72.6499 44.78L71.3364 46.0948Z" fill="#C7A008"/>
<path d="M62.1426 26.7932V27.6892L69.7842 25.4185L70.3216 35.1592L71.6351 33.3664L71.3365 23.6257L62.1426 26.7932Z" fill="#C7A008"/>
<path d="M85.1267 30.2595L78.0224 23.6863L77.1272 25.5982L83.4553 31.5144L85.1267 30.2595Z" fill="#C7A008"/>
<path d="M84.0518 42.5092L75.634 39.7006L74.4402 41.0153L82.7981 44.3619C83.7531 46.1546 85.1864 47.7084 86.9774 48.7842C88.7086 49.86 90.7383 50.517 92.828 50.6961V54.8195L94.1415 55.4766L94.5592 49.2622L84.0518 42.5098V42.5092Z" fill="#C7A008"/>
<path d="M97.5439 41.3742C99.6335 40.8962 100.768 39.8204 101.842 38.6255C101.066 39.2826 97.2453 40.1193 96.5889 40.2984L95.3352 41.6731C95.8726 41.6731 96.8276 41.5533 97.5439 41.3742Z" fill="#C7A008"/>
<path d="M93.7832 27.0321C89.9624 27.5101 87.9925 30.7368 87.6938 31.0956C89.1264 29.9006 90.8582 29.0039 92.8282 28.5858C97.5442 27.4501 101.664 28.8847 104.231 32.0515L105.843 30.7368C103.276 27.6292 98.4999 25.8964 93.7839 27.0321" fill="#C7A008"/>
<path d="M106.559 42.6291C107.037 42.2703 107.813 41.8522 108.29 41.3743L103.216 36.8328C102.798 37.3107 102.499 38.0876 102.022 38.4464L106.559 42.6298V42.6291Z" fill="#C7A008"/>
<path d="M132.648 54.8195C127.335 50.3972 127.633 41.0153 130.26 38.0276L127.931 23.2675L122.797 23.9245L122.558 25.2393H126.439L128.528 38.6248C125.901 41.6125 124.648 45.6161 125.484 49.3214C126.14 52.19 127.931 54.4607 130.439 55.7755C130.677 55.8953 130.976 56.0145 131.215 56.1343L131.274 56.3134L132.827 56.5524C132.767 56.6123 132.946 54.9387 132.648 54.8195Z" fill="#C7A008"/>
<path d="M112.17 25.4191L111.931 26.7339H117.782L119.513 36.2356L120.827 34.9208L119.453 24.8818L112.17 25.4197V25.4191Z" fill="#C7A008"/>
<path d="M122.2 43.824L120.29 48.7243L120.768 50.039L123.454 42.5691L122.2 43.824Z" fill="#C7A008"/>
<path d="M116.588 40.7764L115.275 42.0911L113.842 50.9351L115.216 51.4131L116.589 40.7764H116.588Z" fill="#C7A008"/>
<path d="M142.916 37.9079C143.692 38.4458 144.348 39.1628 144.826 39.9996C145.244 40.6566 145.482 41.3144 145.721 42.1512C146.377 44.84 145.601 47.7085 143.93 49.9793C143.751 50.2183 143.572 50.4572 143.393 50.6363C144.049 50.0385 152.407 43.884 144.288 35.8163C135.333 32.8884 131.93 38.6848 131.632 39.1029C132.587 38.326 133.661 37.609 134.855 37.1909C137.84 35.996 140.825 36.4141 142.914 37.9079" fill="#C7A008"/>
<path d="M138.439 38.5057C138.439 38.5656 139.752 37.1909 139.752 37.1909C138.14 37.2508 137.364 38.0277 137.484 38.3859C137.364 38.5057 137.305 38.6848 137.245 38.804C137.543 38.6249 138.2 38.5051 138.439 38.5051" fill="#C7A008"/>
<path d="M141.423 40.5374C141.483 40.7764 141.483 40.9555 141.483 41.1945C141.483 41.4934 141.363 41.7923 141.244 42.0313C141.483 41.9114 143.394 41.3143 142.677 39.1627C142.737 39.2825 141.363 40.5374 141.423 40.5374Z" fill="#C7A008"/>
<path d="M137.185 47.2897C138.976 47.3496 141.006 46.2738 142.438 44.302C138.796 45.0789 134.916 38.9237 135.274 38.3265C133.901 39.3424 132.647 41.2543 132.588 42.629C132.468 45.1388 134.558 47.1705 137.185 47.2903" fill="#C7A008"/>
<path d="M157.303 63.2448L158.139 63.7827L168.647 32.2306L160.766 30.4379L160.706 32.2905L167.034 33.6652L157.303 63.2448Z" fill="#C7A008"/>
<path d="M144.826 27.0321L144.886 28.8249L153.244 30.4978L156.468 45.7959L157.781 44.4811L154.677 29.0039L144.826 27.0321Z" fill="#C7A008"/>
<path d="M151.274 44.4812L148.945 57.5085L150.259 57.9265L152.587 43.1664L151.274 44.4812Z" fill="#C7A008"/>
<path d="M42.7996 62.2888L38.9189 48.0665L37.4863 49.0824L41.1282 62.6476L42.7996 62.2888Z" fill="#C7A008"/>
<path d="M41.7846 40.9555C40.8894 41.9115 38.8596 43.7642 37.725 44.4811L37.0087 42.2703L35.5163 37.37L34.5612 34.0834L33.6062 35.2783L34.5612 38.565L36.0537 43.4053L36.7699 45.6162C38.3821 44.7201 40.6506 42.8075 41.7846 40.9549" fill="#C7A008"/>
<path d="M99.1249 32.3587C97.0352 30.4467 93.8116 30.5659 91.9016 32.6576C89.9915 34.7492 90.1105 37.9759 92.2002 39.8879C92.3791 40.067 92.5586 40.1868 92.7375 40.306L99.4833 32.6569C99.3636 32.597 99.2446 32.4778 99.1249 32.358V32.3587ZM92.7967 37.737C92.1403 36.542 92.2594 34.9882 93.2743 33.9124C94.2293 32.8966 95.6625 32.5977 96.9162 33.0757L92.7967 37.737Z" fill="#3567B0"/>
<path d="M142.677 39.2225C142.736 39.4615 142.736 39.7005 142.736 39.9395C142.677 41.3734 141.363 42.4492 139.752 42.3893C138.139 42.3294 136.886 41.1344 136.946 39.7005C137.005 38.3857 138.199 37.3099 139.632 37.2506C139.333 37.1907 139.035 37.1308 138.737 37.1308C136.05 37.011 133.901 38.9236 133.782 41.2542C133.662 43.764 135.692 45.8556 138.319 45.9156C141.005 46.0354 143.155 44.1228 143.274 41.6131C143.453 40.7763 143.154 39.9401 142.677 39.2225Z" fill="#3466AF"/>
<path d="M61.7238 42.0911C61.7238 43.5251 60.4103 44.6607 58.8581 44.6607C57.3058 44.6607 55.9923 43.5251 55.9923 42.0911C55.9923 40.7763 57.1269 39.6413 58.6193 39.5215C58.3207 39.4615 58.0221 39.4615 57.7241 39.4615C55.0379 39.4615 52.9482 41.4334 52.9482 43.824C52.9482 46.3337 55.0379 48.3055 57.6643 48.3055C60.2906 48.3055 62.4401 46.3337 62.4401 43.824C62.4401 42.9279 62.1415 42.151 61.664 41.4334C61.664 41.6125 61.7238 41.8515 61.7238 42.0905" fill="url(#paint7_linear_334_105784)"/>
<path d="M159.302 27.6382L158.108 32.5385L157.034 27.1003L142.348 23.8736L142.467 32.0605L144.676 32.5385L144.497 34.0323C144.497 34.0323 144.437 34.0323 144.437 33.9724C141.691 32.5385 138.288 32.3588 135.124 33.6136C134.05 34.0317 133.035 34.5696 132.14 35.2273L129.931 21.244H120.2L119.961 22.8577H109.693L108.499 30.0287L107.663 28.953C105.156 25.9053 101.574 24.2324 97.5739 24.1126L106.29 19.4513L100.2 10.3683L89.2147 23.0368L91.1248 25.3674C89.3936 26.0844 87.9012 27.0404 86.6475 28.236L77.2148 19.87L73.9314 26.1443L74.0511 20.0491L59.3052 24.7696L59.7229 32.6577L62.2302 32.0006L62.5886 36.0042C59.7229 34.6894 56.2605 34.7493 53.0961 36.124C52.1411 36.5421 51.2453 37.0201 50.4691 37.6179C51.0065 35.168 50.8868 32.7775 49.9317 30.6265C48.857 28.1168 46.8871 25.9652 44.5587 24.6511C42.8873 23.5154 40.9168 22.8583 38.8278 22.6194C33.7533 21.7233 27.6041 22.6194 21.5745 25.189C19.3658 26.145 17.2762 27.2208 15.4253 28.4157L13.0969 29.9096L14.5295 32.3001L18.9475 39.8293L20.3209 42.1001L22.7091 40.9051L23.0676 40.726L34.0525 65.2263L35.1273 67.5569L37.5747 66.78L43.4852 64.8681L46.1122 64.0313L45.4558 61.4017L42.2914 49.331C43.1866 48.674 44.0226 47.9564 44.7987 47.1795C44.6198 48.6134 44.7389 50.1073 45.0973 51.482C45.9333 54.4098 47.8434 56.7404 50.5303 57.9953C53.396 59.37 56.9182 59.37 60.1418 57.9953C61.7539 57.2783 63.2464 56.3224 64.4402 55.0675L64.8578 59.9079L75.2455 58.3541V49.0321L96.9162 59.7887V49.4509C97.8114 49.391 98.6473 49.2119 99.5432 49.0328C101.931 48.435 103.961 47.6581 105.811 46.583L104.916 52.1403L116.617 53.993L117.274 49.7504L120.319 55.4276L122.169 51.8421L122.826 57.7582L136.079 60.0889L135.363 55.6073C137.154 55.7864 139.064 55.5474 140.915 54.8903C141.333 54.7113 141.81 54.5315 142.169 54.2925L141.631 59.073L150.467 60.3279L150.527 63.9733L159.721 66.8419L171.72 30.689L159.303 27.6414L159.302 27.6382ZM107.483 33.0165L108.081 32.3594L107.364 36.9009L105.454 35.168L107.484 33.0165H107.483ZM99.7227 14.3725L102.946 18.7349L93.7524 23.2764L93.096 22.3205C93.096 22.3804 99.7227 14.3725 99.7227 14.3725ZM38.8883 48.0749L42.5302 62.1773L36.6197 64.0893L24.441 36.841C23.7845 37.1998 22.5309 37.7969 21.4561 38.3348L17.0381 30.8649C18.7693 29.7292 20.7392 28.7732 22.769 27.8772C28.4999 25.4273 33.9927 24.7097 38.3509 25.4866C39.9031 25.6657 41.5153 26.1437 42.9478 27.1003C44.9178 28.236 46.4102 29.7891 47.306 31.8209C49.4555 36.7212 45.9327 43.7724 38.8883 48.0749ZM66.1707 45.5652C66.1109 47.6568 65.3347 49.7485 64.0212 51.5406C62.7676 53.2734 61.0962 54.6481 59.0664 55.5442C53.9321 57.755 48.7984 55.5442 47.4251 50.6439C46.1116 45.9233 49.2161 40.306 54.1709 38.1545C57.3353 36.7798 60.5589 37.1386 62.8274 38.6924C64.26 39.6483 65.3347 41.0829 65.8122 42.8757C65.8721 43.0548 65.9319 43.2938 65.9319 43.4735C66.1707 44.1905 66.1707 44.9074 66.1707 45.5652ZM94.1694 55.5448L72.6179 44.7883L72.6777 56.0821L67.1257 56.859L66.7081 52.1977C68.4393 49.2698 69.0365 45.7436 68.1406 42.5768C67.6631 40.8439 66.7673 39.2902 65.5136 38.0952L64.7375 28.5935L62.2302 29.2506L62.1105 26.86L71.0656 24.1712L71.603 33.374L78.1699 24.1119L84.6769 30.2671L75.6626 39.7688L84.1402 43.1153C85.0952 44.9081 86.5285 46.4019 88.3195 47.5376C90.0507 48.6134 92.0804 49.2705 94.1701 49.4496V55.5448H94.1694ZM83.0056 39.8886L80.0208 38.7529L82.8267 36.0641C82.6478 37.319 82.707 38.5738 83.0056 39.8886ZM106.408 42.7572C104.318 44.49 101.99 45.5658 98.8861 46.3427C98.2297 46.5218 97.5127 46.6416 96.9162 46.6416C91.9614 47.1196 87.842 44.8488 86.2897 41.2034C86.1108 40.7853 85.9312 40.3073 85.8122 39.8287C85.0959 36.7212 85.6925 33.9724 87.2447 31.7616C87.6624 31.1045 88.1998 30.5666 88.797 30.0287C90.2296 28.714 92.0804 27.8179 94.1701 27.28C98.8861 26.1443 103.006 27.5789 105.573 30.6865L96.6175 40.2474C97.2148 40.3672 98.1698 40.1875 98.8861 40.0084C101.036 39.4705 102.229 38.3355 103.244 37.1399L106.826 40.3666L107.901 41.3226C107.424 41.8605 106.946 42.3384 106.409 42.7565L106.408 42.7572ZM125.452 55.4856L123.482 42.5781L120.736 49.6892L116.617 40.7853H116.557L114.945 51.1232L108.079 49.9282L109.034 44.1917C109.273 43.9528 109.572 43.7138 109.811 43.4149L112.019 41.1441L109.87 39.1723L112.198 25.428H119.123L120.855 34.9297L122.825 23.9341H127.779L129.869 37.3196C127.242 40.3073 125.988 44.3109 126.824 48.0163C127.481 50.8848 129.272 53.1556 131.779 54.5296C132.018 54.6494 132.316 54.7686 132.555 54.8884L132.794 56.6213L125.451 55.4856H125.452ZM142.586 51.243C141.81 51.7809 140.974 52.2589 140.078 52.5578C138.287 53.2148 136.556 53.3945 134.944 53.0357C133.869 52.7967 132.854 52.3787 131.959 51.7809C130.586 50.765 129.571 49.331 129.094 47.4784C128.556 45.2675 129.034 42.877 130.228 40.7853C130.825 39.7694 131.601 38.8135 132.497 37.9767C133.512 37.0806 134.705 36.3037 135.959 35.8251C139.004 34.6894 141.989 35.1081 144.078 36.602C144.854 37.1399 145.511 37.8569 145.988 38.6936C146.347 39.3507 146.645 40.0683 146.824 40.8452C147.481 43.534 146.705 46.4026 145.033 48.6733C144.496 49.6892 143.601 50.526 142.586 51.243ZM158.108 63.4335L153.033 61.9396L152.616 43.1759L150.049 57.6371L144.497 56.7411L144.914 52.5578C148.556 49.5101 150.466 44.6697 149.391 40.2481C148.914 38.3361 147.959 36.6026 146.526 35.3478L147.003 30.4475L144.914 29.9096L144.973 27.28L154.525 29.192L157.749 44.4301L161.032 30.7457L168.315 32.3594L158.107 63.4328L158.108 63.4335Z" fill="url(#paint8_linear_334_105784)"/>
<path d="M42.6494 36.9003C42.112 34.0317 38.3511 32.4187 34.5901 34.4504L35.5451 37.7371L37.0375 42.6374L37.7538 44.8482C40.5598 43.1153 43.3657 40.9045 42.6494 36.9003ZM38.9483 41.3819C38.5306 40.0671 37.6348 37.1985 37.6348 37.1985C37.6348 37.1985 37.4559 36.6007 37.2171 35.8838C37.9932 35.7639 38.7694 35.8238 39.3666 36.1227C39.7251 36.3018 40.3216 36.6606 40.4413 37.4375C40.7998 38.9913 40.2624 40.1862 38.9489 41.3812L38.9483 41.3819Z" fill="#3C5AA6"/>
</g>
<defs>
<filter id="filter0_d_334_105784" x="0.919922" y="0.359985" width="192.801" height="91.0406" filterUnits="userSpaceOnUse" color-interpolation-filters="sRGB">
<feFlood flood-opacity="0" result="BackgroundImageFix"/>
<feColorMatrix in="SourceAlpha" type="matrix" values="0 0 0 0 0 0 0 0 0 0 0 0 0 0 0 0 0 0 127 0" result="hardAlpha"/>
<feOffset dx="6" dy="6"/>
<feGaussianBlur stdDeviation="8"/>
<feComposite in2="hardAlpha" operator="out"/>
<feColorMatrix type="matrix" values="0 0 0 0 0 0 0 0 0 0 0 0 0 0 0 0 0 0 0.25 0"/>
<feBlend mode="normal" in2="BackgroundImageFix" result="effect1_dropShadow_334_105784"/>
<feBlend mode="normal" in="SourceGraphic" in2="effect1_dropShadow_334_105784" result="shape"/>
</filter>
<linearGradient id="paint0_linear_334_105784" x1="19.1374" y1="42.6978" x2="13.1442" y2="31.5416" gradientUnits="userSpaceOnUse">
<stop stop-color="#0070B6"/>
<stop offset="1" stop-color="#1D2C5E"/>
</linearGradient>
<linearGradient id="paint1_linear_334_105784" x1="92.1064" y1="19.8796" x2="99.705" y2="11.7389" gradientUnits="userSpaceOnUse">
<stop stop-color="#0070B6"/>
<stop offset="1" stop-color="#1D2C5E"/>
</linearGradient>
<linearGradient id="paint2_linear_334_105784" x1="58.9843" y1="33.4677" x2="58.0748" y2="25.8579" gradientUnits="userSpaceOnUse">
<stop stop-color="#0070B6"/>
<stop offset="1" stop-color="#1D2C5E"/>
</linearGradient>
<linearGradient id="paint3_linear_334_105784" x1="141.927" y1="32.0031" x2="141.568" y2="25.1285" gradientUnits="userSpaceOnUse">
<stop stop-color="#125D9E"/>
<stop offset="1" stop-color="#1D2C5E"/>
</linearGradient>
<linearGradient id="paint4_linear_334_105784" x1="116.593" y1="22.0914" x2="108.614" y2="34.7758" gradientUnits="userSpaceOnUse">
<stop stop-color="#125D9E"/>
<stop offset="1" stop-color="#1D2C5E"/>
</linearGradient>
<linearGradient id="paint5_linear_334_105784" x1="46.1022" y1="42.4347" x2="51.5453" y2="53.1251" gradientUnits="userSpaceOnUse">
<stop stop-color="#105FA1"/>
<stop offset="1" stop-color="#1D2C5E"/>
</linearGradient>
<linearGradient id="paint6_linear_334_105784" x1="25.5577" y1="38.8061" x2="31.8567" y2="53.394" gradientUnits="userSpaceOnUse">
<stop stop-color="#105FA1"/>
<stop offset="1" stop-color="#1D2C5E"/>
</linearGradient>
<linearGradient id="paint7_linear_334_105784" x1="53.2026" y1="44.1539" x2="62.7164" y2="44.1539" gradientUnits="userSpaceOnUse">
<stop stop-color="#3C5AA6"/>
<stop offset="0.93" stop-color="#2B73B9"/>
<stop offset="1" stop-color="#2A75BB"/>
</linearGradient>
<linearGradient id="paint8_linear_334_105784" x1="13.4284" y1="39.2308" x2="172.111" y2="39.2308" gradientUnits="userSpaceOnUse">
<stop stop-color="#3C5AA6"/>
<stop offset="0.93" stop-color="#2B73B9"/>
<stop offset="1" stop-color="#2A75BB"/>
</linearGradient>
</defs>
</svg>
